<svg xmlns="http://www.w3.org/2000/svg" version="1.1" x="0px" y="0px" viewBox="0 0 1467 231">
  <path d="M205.9258,97.2686 C204.8638,99.1086 202.2068,99.1086 201.1448,97.2686 L147.7848,4.8476 C146.5848,2.7686 148.0848,0.1706 150.4858,0.1706 L256.5858,0.1706 C258.9858,0.1706 260.4858,2.7686 259.2848,4.8476 L205.9258,97.2686 Z M201.1446,130.8577 C202.2066,129.0167 204.8636,129.0167 205.9256,130.8577 L259.2856,223.2787 C260.4856,225.3577 258.9856,227.9557 256.5856,227.9557 L150.4856,227.9557 C148.0846,227.9557 146.5846,225.3577 147.7856,223.2787 L201.1446,130.8577 Z M107.086,0.0445794921 C112.006,0.0386 116.556,2.6616 119.016,6.9236 L170.793,96.6036 C171.992,98.6806 170.495,101.2776 168.097,101.2806 L64.542,101.400614 C59.621,101.4056 55.072,98.7836 52.612,94.5216 L0.835,4.8416 C-0.364,2.7636 1.133,0.1676 3.531,0.1646 L107.086,0.0445794921 Z M52.6124,133.5364 C55.0724,129.2754 59.6214,126.6524 64.5424,126.65838 L168.0894,126.7774 C170.4894,126.7804 171.9864,129.3804 170.7844,131.4574 L118.9344,221.0224 C116.4754,225.2714 111.9384,227.8874 107.0294,227.8874 L3.5384,227.8874 C1.1384,227.8874 -0.3616,225.2894 0.8394,223.2114 L52.6124,133.5364 Z" fill="#1ED699"/>
  <path d="M446.4864,60.3694 C408.3984,60.3694 385.6594,87.1474 385.6594,132.0004 C385.6594,176.8534 408.3984,203.6304 446.4864,203.6304 C471.4414,203.6304 487.3804,192.1324 493.8594,169.4564 L493.9514,169.1344 L497.2664,165.8194 L519.9424,165.8194 L523.4914,169.3684 L523.3824,170.0234 C517.0704,207.9044 488.3244,230.5204 446.4864,230.5204 C391.5604,230.5204 356.0694,191.8484 356.0694,132.0004 C356.0694,72.1504 391.5604,33.4794 446.4864,33.4794 C487.9774,33.4794 517.4424,55.6254 523.3824,91.2754 L523.4914,91.9304 L519.9424,95.4794 L497.2664,95.4794 L493.9514,92.1644 L493.8594,91.8424 C488.1434,71.8404 470.8784,60.3694 446.4864,60.3694 Z M633.1016,90.1961 L655.7776,90.1961 L659.2366,93.6531 L659.2366,224.3621 L655.7776,227.8191 L635.8016,227.8191 L632.4696,224.4871 L629.9276,214.3161 L628.9026,214.3161 C626.6926,217.3081 615.7986,230.5211 595.8246,230.5211 C580.0056,230.5211 543.2176,224.8691 543.2176,172.5121 L543.2176,93.6531 L546.6766,90.1961 L569.3516,90.1961 L572.8096,93.6531 L572.8096,172.5121 C572.8096,193.1611 581.4616,203.6301 598.5266,203.6301 C618.5936,203.6301 629.6446,187.7831 629.6446,159.0081 L629.6446,93.6531 L633.1016,90.1961 Z M747.9102,90.1961 L759.2482,90.1961 L762.7052,93.6531 L762.7052,113.6281 L759.2482,117.0861 L745.2102,117.0861 C717.1412,117.0861 711.3892,132.7651 711.3892,156.3071 L711.3892,224.3621 L707.9332,227.8191 L685.2572,227.8191 L681.8002,224.3621 L681.8002,93.6531 L685.2572,90.1961 L705.2302,90.1961 L708.5652,93.5281 L711.1072,103.7011 L712.2662,103.7011 C720.9322,95.1401 729.6592,90.1961 747.9102,90.1961 Z M849.1368,90.1961 L860.4748,90.1961 L863.9318,93.6531 L863.9318,113.6281 L860.4748,117.0861 L846.4368,117.0861 C818.3678,117.0861 812.6158,132.7651 812.6158,156.3071 L812.6158,224.3621 L809.1588,227.8191 L786.4838,227.8191 L783.0268,224.3621 L783.0268,93.6531 L786.4838,90.1961 L806.4568,90.1961 L809.7908,93.5281 L812.3338,103.7011 L813.4918,103.7011 C822.1578,95.1401 830.8848,90.1961 849.1368,90.1961 Z M965.0724,144.973 C964.9594,137.118 962.1664,114.385 933.9574,114.385 C905.7504,114.385 902.9564,137.118 902.8434,144.973 L904.7844,146.914 L963.1324,146.914 L965.0724,144.973 Z M933.9574,87.496 C980.7104,87.496 997.3674,124.437 997.3674,159.008 L997.3674,167.646 L993.9104,171.103 L904.7844,171.103 L902.8504,173.036 C903.0054,177.254 905.2274,203.63 936.6584,203.63 C945.8074,203.63 957.0094,201.881 962.4674,188.237 L962.7544,187.804 L965.8334,184.725 L988.5084,184.725 L992.0354,188.251 L991.9574,188.877 C989.3644,209.605 971.2604,230.521 936.6584,230.521 C895.8804,230.521 870.5474,203.119 870.5474,159.008 C870.5474,124.437 887.2054,87.496 933.9574,87.496 Z M1080.1964,87.4962 C1114.6114,87.4962 1132.8024,107.5552 1132.8024,145.5042 L1132.8024,224.3612 L1129.3454,227.8192 L1106.6704,227.8192 L1103.2134,224.3612 L1103.2134,145.5042 C1103.2134,132.1452 1100.5474,114.3852 1077.4964,114.3852 C1053.7914,114.3852 1043.6764,127.7302 1043.6764,159.0082 L1043.6764,224.3612 L1040.2204,227.8192 L1017.5434,227.8192 L1014.0864,224.3612 L1014.0864,93.6532 L1017.5434,90.1962 L1037.5184,90.1962 L1040.8524,93.5282 L1043.3944,103.7012 L1044.4234,103.7012 C1046.6584,100.7092 1057.8034,87.4962 1080.1964,87.4962 Z M1230.3282,156.7921 L1230.3282,158.5201 L1270.8402,204.4341 L1270.8402,224.3621 L1267.3832,227.8191 L1258.4392,227.8191 L1252.3742,224.6811 L1212.2482,179.2051 L1210.7132,179.2051 L1170.1952,224.9821 L1164.5202,227.8191 L1155.5802,227.8191 L1152.1212,224.3621 L1152.1212,204.4341 L1192.6342,158.5201 L1192.6342,156.7921 L1154.8232,113.5791 L1154.8232,93.6531 L1158.2792,90.1961 L1167.2222,90.1961 L1173.2902,93.3371 L1210.7172,136.1101 L1212.2442,136.1101 L1250.0642,93.0331 L1255.7382,90.1961 L1264.6812,90.1961 L1268.1402,93.6531 L1268.1402,113.5791 L1230.3282,156.7921 Z M1293.6154,41.5823 L1316.2924,41.5823 L1319.7494,45.0393 L1319.7494,67.7153 L1316.2924,71.1723 L1293.6154,71.1723 L1290.1584,67.7153 L1290.1584,45.0393 L1293.6154,41.5823 Z M1293.6154,90.1961 L1316.2924,90.1961 L1319.7494,93.6531 L1319.7494,224.3621 L1316.2924,227.8191 L1293.6154,227.8191 L1290.1584,224.3621 L1290.1584,93.6531 L1293.6154,90.1961 Z M1433.7931,144.973 C1433.6801,137.118 1430.8861,114.385 1402.6781,114.385 C1374.4701,114.385 1371.6771,137.118 1371.5641,144.973 L1373.5041,146.914 L1431.8521,146.914 L1433.7931,144.973 Z M1402.6781,87.496 C1449.4301,87.496 1466.0871,124.437 1466.0871,159.008 L1466.0871,167.646 L1462.6311,171.103 L1373.5041,171.103 L1371.5701,173.036 C1371.7251,177.254 1373.9481,203.63 1405.3791,203.63 C1414.5271,203.63 1425.7301,201.881 1431.1881,188.237 L1431.4741,187.804 L1434.5531,184.725 L1457.2291,184.725 L1460.7561,188.251 L1460.6781,188.877 C1458.0851,209.605 1439.9801,230.521 1405.3791,230.521 C1364.6001,230.521 1339.2681,203.119 1339.2681,159.008 C1339.2681,124.437 1355.9251,87.496 1402.6781,87.496 Z" fill="#FFFFFF"/>
</svg>
